/////////////////////////////////////////////////////////////////////////////
// sfz definition file
// copyright Chicken Systems, Inc.
// -------------------------------------------------------------------------
// Application: Translator 6 6.0, Build 34
// Vendor: 


<region> sample=..\..\processed drums\kicks\wams20_kick_broken-1_p.wav lokey=36 hikey=36 end=11280 pitch_keycenter=36 bend_up=700 bend_down=-700 amp_veltrack=59.842518 ampeg_decay=200.199997 ampeg_release=200.199997 pitchlfo_freq=5.998879 

<region> sample=..\..\processed drums\percussion\wams20_block_pure-noise_p.wav lokey=37 hikey=37 end=8768 pitch_keycenter=37 bend_up=700 bend_down=-700 amp_veltrack=59.842518 ampeg_decay=200.199997 ampeg_release=200.199997 pitchlfo_freq=5.998879 

<region> sample=..\..\processed drums\snares\wams20_snare_grit-smack-1b_p.wav lokey=38 hikey=38 end=14701 pitch_keycenter=38 bend_up=700 bend_down=-700 amp_veltrack=59.842518 ampeg_decay=200.199997 ampeg_release=200.199997 pitchlfo_freq=5.998879 

<region> sample=..\..\processed drums\snares\wams20_snare_clap-3_p.wav lokey=39 hikey=39 end=13232 pitch_keycenter=39 bend_up=700 bend_down=-700 amp_veltrack=59.842518 ampeg_decay=200.199997 ampeg_release=200.199997 pitchlfo_freq=5.998879 

<region> sample=..\..\processed drums\snares\wams20_snare_res-attk-noise-b_p.wav lokey=40 hikey=40 end=12880 pitch_keycenter=40 bend_up=700 bend_down=-700 amp_veltrack=59.842518 ampeg_decay=200.199997 ampeg_release=200.199997 pitchlfo_freq=5.998879 

<region> sample=..\..\processed drums\toms\wams20_tom_dark-harmony-2_p.wav lokey=41 hikey=41 end=96064 pitch_keycenter=41 bend_up=700 bend_down=-700 amp_veltrack=59.842518 ampeg_decay=200.199997 ampeg_release=200.199997 pitchlfo_freq=5.998879 

<region> sample=..\..\processed drums\cymbals\wams20_cl-hat_noise-smack-1a_p.wav lokey=42 hikey=42 end=9728 pitch_keycenter=42 bend_up=700 bend_down=-700 amp_veltrack=59.842518 ampeg_decay=200.199997 ampeg_release=200.199997 pitchlfo_freq=5.998879 

<region> sample=..\..\processed drums\toms\wams20_tom_dark-harmony-1_p.wav lokey=43 hikey=43 end=98560 pitch_keycenter=43 bend_up=700 bend_down=-700 amp_veltrack=59.842518 ampeg_decay=200.199997 ampeg_release=200.199997 pitchlfo_freq=5.998879 

<region> sample=..\..\processed drums\cymbals\wams20_cl-hat_noise-smack-2_p.wav lokey=44 hikey=44 end=8144 pitch_keycenter=44 bend_up=700 bend_down=-700 amp_veltrack=59.842518 ampeg_decay=200.199997 ampeg_release=200.199997 pitchlfo_freq=5.998879 

<region> sample=..\..\processed drums\toms\wams20_tom_discord-1_p.wav lokey=45 hikey=45 end=40768 pitch_keycenter=45 bend_up=700 bend_down=-700 amp_veltrack=59.842518 ampeg_decay=200.199997 ampeg_release=200.199997 pitchlfo_freq=5.998879 

<region> sample=..\..\processed drums\cymbals\wams20_op-hat_hard-low_P.wav lokey=46 hikey=46 end=27200 pitch_keycenter=46 bend_up=700 bend_down=-700 amp_veltrack=59.842518 ampeg_decay=200.199997 ampeg_release=200.199997 pitchlfo_freq=5.998879 

<region> sample=..\..\processed drums\percussion\wams20_rimshot_classic_p.wav lokey=47 hikey=47 end=4384 pitch_keycenter=47 bend_up=700 bend_down=-700 amp_veltrack=59.842518 ampeg_decay=200.199997 ampeg_release=200.199997 pitchlfo_freq=5.998879 

<region> sample=..\..\processed drums\percussion\wams20_rimshot_conga-pop-2_p.wav lokey=48 hikey=48 end=4544 pitch_keycenter=48 bend_up=700 bend_down=-700 amp_veltrack=59.842518 ampeg_decay=200.199997 ampeg_release=200.199997 pitchlfo_freq=5.998879 

<region> sample=..\..\processed drums\cymbals\wams20_splash_metal-tones-2_p.wav lokey=49 hikey=49 end=68864 pitch_keycenter=48 bend_up=700 bend_down=-700 amp_veltrack=59.842518 ampeg_decay=200.199997 ampeg_release=200.199997 pitchlfo_freq=5.998879 

<region> sample=..\..\processed drums\cymbals\wams20_ride_hard-metal_p.wav lokey=50 hikey=50 end=43968 pitch_keycenter=50 bend_up=700 bend_down=-700 amp_veltrack=59.842518 ampeg_decay=200.199997 ampeg_release=200.199997 pitchlfo_freq=5.998879 

